<svg xmlns="http://www.w3.org/2000/svg" class="svg-logo" width="2400" height="2400" viewBox="0 0 630 430" style="height: auto;"><rect width="630" height="630" y="-100" rx="0" ry="0" fill="transparent" fill-opacity="0"></rect><g data-element="wrapper" transform="translate(47.24999999999696 36.500006484983345) scale(0.8500000000000096)"><g ><g data-element="icon" transform="scale(0.16762274242838127) translate(1581.579948425293 618.1068462866359)"><path id="color_x5F_2" d="M505.811,191.392L329.277,89.468h176.533V191.392z M89.468,89.468v101.924L266,89.468    H89.468z M267.496,445.524h60.287v60.287h57.452v-26.777V330.619l-87.595-50.573l-87.596,50.573v148.415v26.777h57.452V445.524z" fill="#ffbad4" fill-opacity="1"></path> <path id="color_x5F_1_1_" d="M505.811,261.006l60.289,34.809h-60.289v209.997h-60.287V295.814l-147.885-85.383    l-147.882,85.383v209.998H89.468V295.815H29.18l60.288-34.809l0,0l208.17-120.19L505.811,261.006L505.811,261.006z" fill="#ffbad4" fill-opacity="1"></path></g><path d="M181.69 214.59L173.69 214.59L173.69 238.91L181.69 238.91Q183.87 238.91 185.69 238.24Q187.51 237.57 188.83 236.10Q190.14 234.63 190.87 232.32Q191.61 230.02 191.61 226.75L191.61 226.75Q191.61 223.49 190.87 221.19Q190.14 218.88 188.83 217.41Q187.51 215.94 185.69 215.27Q183.87 214.59 181.69 214.59L181.69 214.59ZM164.73 210.11L181.69 210.11Q186.11 210.11 189.72 211.27Q193.34 212.42 195.90 214.59Q198.46 216.77 199.83 219.84Q201.21 222.91 201.21 226.75L201.21 226.75Q201.21 230.59 199.83 233.67Q198.46 236.74 195.90 238.91Q193.34 241.09 189.72 242.24Q186.11 243.39 181.69 243.39L181.69 243.39L173.69 243.39L173.69 254.91L164.73 254.91L164.73 210.11ZM233.85 210.11L233.85 214.59L226.17 214.59Q221.82 214.59 219.51 216.93Q217.21 219.27 217.21 223.87L217.21 223.87L217.21 243.39L208.25 243.39L208.25 223.87Q208.25 217.35 212.38 213.73Q216.51 210.11 224.25 210.11L224.25 210.11L233.85 210.11ZM254.97 240.51L254.97 240.51Q257.02 240.51 258.81 239.75Q260.60 238.98 261.95 237.35Q263.29 235.71 264.09 233.09Q264.89 230.47 264.89 226.75L264.89 226.75Q264.89 223.04 264.09 220.42Q263.29 217.79 261.95 216.16Q260.60 214.53 258.81 213.76Q257.02 212.99 254.97 212.99L254.97 212.99Q252.92 212.99 251.13 213.76Q249.34 214.53 247.99 216.16Q246.65 217.79 245.85 220.42Q245.05 223.04 245.05 226.75L245.05 226.75Q245.05 230.47 245.85 233.09Q246.65 235.71 247.99 237.35Q249.34 238.98 251.13 239.75Q252.92 240.51 254.97 240.51ZM254.97 208.83L254.97 208.83Q259.26 208.83 262.87 210.02Q266.49 211.20 269.05 213.47Q271.61 215.75 273.05 219.11Q274.49 222.47 274.49 226.75L274.49 226.75Q274.49 231.11 273.05 234.43Q271.61 237.76 269.05 240.03Q266.49 242.31 262.87 243.49Q259.26 244.67 254.97 244.67L254.97 244.67Q250.62 244.67 247.03 243.49Q243.45 242.31 240.89 240.03Q238.33 237.76 236.89 234.43Q235.45 231.11 235.45 226.75L235.45 226.75Q235.45 222.47 236.89 219.11Q238.33 215.75 240.89 213.47Q243.45 211.20 247.03 210.02Q250.62 208.83 254.97 208.83ZM298.81 214.59L290.81 214.59L290.81 238.91L298.81 238.91Q300.99 238.91 302.81 238.24Q304.63 237.57 305.95 236.10Q307.26 234.63 307.99 232.32Q308.73 230.02 308.73 226.75L308.73 226.75Q308.73 223.49 307.99 221.19Q307.26 218.88 305.95 217.41Q304.63 215.94 302.81 215.27Q300.99 214.59 298.81 214.59L298.81 214.59ZM281.85 210.11L298.81 210.11Q303.23 210.11 306.84 211.27Q310.46 212.42 313.02 214.59Q315.58 216.77 316.95 219.84Q318.33 222.91 318.33 226.75L318.33 226.75Q318.33 230.59 316.95 233.67Q315.58 236.74 313.02 238.91Q310.46 241.09 306.84 242.24Q303.23 243.39 298.81 243.39L298.81 243.39L290.81 243.39L290.81 254.91L281.85 254.91L281.85 210.11ZM327.29 231.23L327.29 214.59L321.21 214.59L321.21 210.11L327.29 210.11L327.29 199.87L336.25 199.87L336.25 210.11L346.17 210.11L346.17 214.59L336.25 214.59L336.25 231.23Q336.25 233.67 336.79 235.36Q337.34 237.06 338.27 238.11Q339.19 239.17 340.41 239.68Q341.63 240.19 342.97 240.19L342.97 240.19Q344.89 240.19 346.68 239.59Q348.47 238.98 349.69 238.27L349.69 238.27L351.61 242.43Q349.69 243.39 347.23 244.03Q344.76 244.67 342.33 244.67L342.33 244.67Q335.10 244.67 331.19 241.09Q327.29 237.51 327.29 231.23L327.29 231.23ZM372.73 240.51L372.73 240.51Q374.78 240.51 376.57 239.75Q378.36 238.98 379.71 237.35Q381.05 235.71 381.85 233.09Q382.65 230.47 382.65 226.75L382.65 226.75Q382.65 223.04 381.85 220.42Q381.05 217.79 379.71 216.16Q378.36 214.53 376.57 213.76Q374.78 212.99 372.73 212.99L372.73 212.99Q370.68 212.99 368.89 213.76Q367.10 214.53 365.75 216.16Q364.41 217.79 363.61 220.42Q362.81 223.04 362.81 226.75L362.81 226.75Q362.81 230.47 363.61 233.09Q364.41 235.71 365.75 237.35Q367.10 238.98 368.89 239.75Q370.68 240.51 372.73 240.51ZM372.73 208.83L372.73 208.83Q377.02 208.83 380.63 210.02Q384.25 211.20 386.81 213.47Q389.37 215.75 390.81 219.11Q392.25 222.47 392.25 226.75L392.25 226.75Q392.25 231.11 390.81 234.43Q389.37 237.76 386.81 240.03Q384.25 242.31 380.63 243.49Q377.02 244.67 372.73 244.67L372.73 244.67Q368.38 244.67 364.79 243.49Q361.21 242.31 358.65 240.03Q356.09 237.76 354.65 234.43Q353.21 231.11 353.21 226.75L353.21 226.75Q353.21 222.47 354.65 219.11Q356.09 215.75 358.65 213.47Q361.21 211.20 364.79 210.02Q368.38 208.83 372.73 208.83ZM424.89 210.11L424.89 214.59L417.21 214.59Q412.86 214.59 410.55 216.93Q408.25 219.27 408.25 223.87L408.25 223.87L408.25 243.39L399.29 243.39L399.29 223.87Q399.29 217.35 403.42 213.73Q407.55 210.11 415.29 210.11L415.29 210.11L424.89 210.11ZM456.25 242.75L456.25 242.11L447.93 242.11Q438.78 242.11 434.39 238.82Q430.01 235.52 430.01 228.99L430.01 228.99L430.01 210.11L438.97 210.11L438.97 228.99Q438.97 233.60 441.27 235.62Q443.58 237.63 447.93 237.63L447.93 237.63L456.25 237.63L456.25 210.11L465.21 210.11L465.21 242.75Q465.21 245.76 464.06 248.23Q462.91 250.69 460.63 252.48Q458.36 254.27 454.94 255.23Q451.51 256.19 446.97 256.19L446.97 256.19Q445.43 256.19 443.67 255.97Q441.91 255.75 440.12 255.27Q438.33 254.79 436.63 254.05Q434.94 253.31 433.53 252.35L433.53 252.35L436.09 248.51Q438.27 249.99 440.95 250.85Q443.64 251.71 446.33 251.71L446.33 251.71Q451.13 251.71 453.69 249.54Q456.25 247.36 456.25 242.75L456.25 242.75Z" data-element="company-name" data-text-path="" data-text="proptory" data-font-family="Prosto One" fill="#ffbad4" fill-opacity="1"></path><path d="M96.51 269.64L96.51 272.03L92.85 272.03L92.85 282.97Q92.85 285.07 91.99 286.62Q91.12 288.16 89.64 288.96Q88.16 289.77 86.28 289.77L86.28 289.77Q84.44 289.77 82.86 289.14Q81.27 288.50 80.18 287.58L80.18 287.58L81.47 285.51Q83.89 287.29 86.00 287.29L86.00 287.29Q87.78 287.29 88.82 286.21Q89.85 285.13 89.85 282.91L89.85 282.91L89.83 272.03L84.70 272.03L84.70 269.64L96.51 269.64ZM104.43 289.80Q102.44 289.80 100.71 288.90Q98.98 288.01 97.96 286.37Q96.94 284.73 96.94 282.63L96.94 282.63Q96.94 280.50 97.96 278.87Q98.98 277.24 100.71 276.35Q102.44 275.46 104.43 275.46L104.43 275.46Q106.39 275.46 108.10 276.35Q109.81 277.24 110.85 278.88Q111.89 280.52 111.89 282.63L111.89 282.63Q111.89 284.73 110.88 286.37Q109.87 288.01 108.16 288.90Q106.44 289.80 104.43 289.80L104.43 289.80ZM104.43 287.52Q105.72 287.52 106.76 286.92Q107.80 286.31 108.39 285.20Q108.98 284.10 108.98 282.63L108.98 282.63Q108.98 281.16 108.39 280.05Q107.80 278.94 106.76 278.34Q105.72 277.73 104.43 277.73L104.43 277.73Q102.44 277.73 101.16 279.07Q99.88 280.41 99.88 282.63L99.88 282.63Q99.88 284.84 101.16 286.18Q102.44 287.52 104.43 287.52L104.43 287.52ZM130.87 275.83L130.87 278.10L128.73 278.10L123.03 290.89Q121.82 293.57 120.31 294.91Q118.80 296.25 116.78 296.25L116.78 296.25Q115.66 296.25 114.75 295.89Q113.84 295.53 112.78 294.84L112.78 294.84L113.93 292.68Q115.40 293.74 116.78 293.74L116.78 293.74Q118.02 293.74 119.00 292.95Q119.98 292.16 120.73 290.43L120.73 290.43L120.93 289.97L115.11 278.10L112.87 278.10L112.87 275.83L120.47 275.83L120.47 277.90L118.14 277.90L122.23 287.00L126.23 277.90L124.01 277.90L124.01 275.83L130.87 275.83ZM140.77 270.67Q139.45 270.67 138.64 271.51Q137.84 272.34 137.84 273.81L137.84 273.81L137.84 275.83L142.16 275.83L142.16 278.10L137.84 278.10L137.84 287.12L141.81 287.12L141.81 289.39L131.99 289.39L131.99 287.12L135.04 287.12L135.04 278.10L131.99 278.10L131.99 275.83L135.04 275.83L135.04 273.90Q135.04 271.22 136.52 269.75Q138.01 268.28 140.48 268.28L140.48 268.28Q141.75 268.28 142.80 268.62Q143.85 268.95 145.24 269.58L145.24 269.58L144.20 271.77Q143.31 271.25 142.49 270.96Q141.67 270.67 140.77 270.67L140.77 270.67ZM161.48 287.09L162.11 289.14Q161.13 289.68 159.95 289.68L159.95 289.68Q158.60 289.68 157.76 288.88Q156.93 288.07 156.81 286.57L156.81 286.57Q155.37 288.16 153.99 288.96Q152.61 289.77 151.08 289.77L151.08 289.77Q148.84 289.77 147.61 288.27Q146.39 286.77 146.39 283.86L146.39 283.86L146.39 278.10L143.68 278.10L143.68 275.83L149.21 275.83L149.21 283.78Q149.21 285.39 149.89 286.27Q150.56 287.15 152.06 287.15L152.06 287.15Q154.28 287.15 156.79 284.35L156.79 284.35L156.79 278.10L154.31 278.10L154.31 275.83L159.61 275.83L159.61 285.91Q159.61 287.32 160.59 287.32L160.59 287.32Q161.16 287.32 161.48 287.09L161.48 287.09ZM169.23 287.12L172.37 287.12L172.37 289.39L163.38 289.39L163.38 287.12L166.40 287.12L166.40 271.91L163.38 271.91L163.38 269.64L169.23 269.64L169.23 287.12ZM193.04 275.46Q194.74 275.46 196.18 276.35Q197.62 277.24 198.49 278.84Q199.35 280.44 199.35 282.48L199.35 282.48Q199.35 284.58 198.42 286.26Q197.48 287.93 195.87 288.86Q194.25 289.80 192.30 289.80L192.30 289.80Q189.73 289.80 187.57 287.84L187.57 287.84L187.57 293.40L190.71 293.40L190.71 295.67L181.78 295.67L181.78 293.40L184.81 293.40L184.81 278.10L181.78 278.10L181.78 275.83L187.57 275.83L187.57 278.45Q188.70 277.07 190.14 276.26Q191.58 275.46 193.04 275.46L193.04 275.46ZM191.69 287.38Q193.04 287.38 194.12 286.76Q195.20 286.14 195.81 285.02Q196.41 283.89 196.41 282.45L196.41 282.45Q196.41 280.41 195.25 279.13Q194.08 277.85 192.27 277.85L192.27 277.85Q191.03 277.85 189.82 278.59Q188.61 279.34 187.57 280.67L187.57 280.67L187.57 285.71Q189.65 287.38 191.69 287.38L191.69 287.38ZM213.69 275.48L214.90 275.48L214.90 281.24L212.40 281.24L212.40 278.28Q211.28 278.28 209.95 279.11Q208.63 279.95 207.21 281.47L207.21 281.47L207.21 287.12L210.30 287.12L210.30 289.39L201.34 289.39L201.34 287.12L204.39 287.12L204.39 278.10L201.34 278.10L201.34 275.83L207.21 275.83L207.21 279.23Q208.74 277.47 210.40 276.48Q212.05 275.48 213.69 275.48L213.69 275.48ZM224.58 289.80Q222.59 289.80 220.87 288.90Q219.14 288.01 218.12 286.37Q217.09 284.73 217.09 282.63L217.09 282.63Q217.09 280.50 218.12 278.87Q219.14 277.24 220.87 276.35Q222.59 275.46 224.58 275.46L224.58 275.46Q226.54 275.46 228.25 276.35Q229.97 277.24 231.00 278.88Q232.04 280.52 232.04 282.63L232.04 282.63Q232.04 284.73 231.03 286.37Q230.02 288.01 228.31 288.90Q226.60 289.80 224.58 289.80L224.58 289.80ZM224.58 287.52Q225.88 287.52 226.91 286.92Q227.95 286.31 228.54 285.20Q229.13 284.10 229.13 282.63L229.13 282.63Q229.13 281.16 228.54 280.05Q227.95 278.94 226.91 278.34Q225.88 277.73 224.58 277.73L224.58 277.73Q222.59 277.73 221.31 279.07Q220.03 280.41 220.03 282.63L220.03 282.63Q220.03 284.84 221.31 286.18Q222.59 287.52 224.58 287.52L224.58 287.52ZM244.80 275.46Q246.50 275.46 247.94 276.35Q249.38 277.24 250.24 278.84Q251.11 280.44 251.11 282.48L251.11 282.48Q251.11 284.58 250.17 286.26Q249.23 287.93 247.62 288.86Q246.01 289.80 244.05 289.80L244.05 289.80Q241.49 289.80 239.33 287.84L239.33 287.84L239.33 293.40L242.47 293.40L242.47 295.67L233.54 295.67L233.54 293.40L236.56 293.40L236.56 278.10L233.54 278.10L233.54 275.83L239.33 275.83L239.33 278.45Q240.45 277.07 241.89 276.26Q243.33 275.46 244.80 275.46L244.80 275.46ZM243.44 287.38Q244.80 287.38 245.88 286.76Q246.96 286.14 247.56 285.02Q248.17 283.89 248.17 282.45L248.17 282.45Q248.17 280.41 247.00 279.13Q245.84 277.85 244.02 277.85L244.02 277.85Q242.78 277.85 241.57 278.59Q240.36 279.34 239.33 280.67L239.33 280.67L239.33 285.71Q241.40 287.38 243.44 287.38L243.44 287.38ZM266.05 285.54L267.26 287.38Q264.50 289.80 260.96 289.80L260.96 289.80Q259.03 289.80 257.30 288.99Q255.57 288.18 254.50 286.63Q253.44 285.07 253.44 282.94L253.44 282.94Q253.44 280.67 254.53 278.97Q255.63 277.27 257.38 276.36Q259.14 275.46 261.07 275.46L261.07 275.46Q262.77 275.46 264.11 276.00Q265.45 276.55 266.21 277.53Q266.97 278.51 266.97 279.78L266.97 279.78Q266.97 281.68 265.35 282.73Q263.72 283.78 261.44 283.78L261.44 283.78Q259.98 283.78 258.71 283.48Q257.44 283.17 256.15 282.60L256.15 282.60L256.15 282.86Q256.15 284.21 256.79 285.25Q257.44 286.28 258.54 286.83Q259.63 287.38 260.93 287.38L260.93 287.38Q263.86 287.38 266.05 285.54L266.05 285.54ZM261.27 277.70Q259.72 277.70 258.38 278.59Q257.04 279.49 256.46 281.01L256.46 281.01Q258.65 281.79 260.84 281.79L260.84 281.79Q262.28 281.79 263.22 281.26Q264.15 280.73 264.15 279.78L264.15 279.78Q264.15 278.85 263.35 278.28Q262.54 277.70 261.27 277.70L261.27 277.70ZM281.55 275.48L282.76 275.48L282.76 281.24L280.25 281.24L280.25 278.28Q279.13 278.28 277.80 279.11Q276.48 279.95 275.07 281.47L275.07 281.47L275.07 287.12L278.15 287.12L278.15 289.39L269.19 289.39L269.19 287.12L272.24 287.12L272.24 278.10L269.19 278.10L269.19 275.83L275.07 275.83L275.07 279.23Q276.59 277.47 278.25 276.48Q279.91 275.48 281.55 275.48L281.55 275.48ZM295.66 286.31L296.64 288.44Q295.57 289.08 294.55 289.42Q293.53 289.77 292.20 289.77L292.20 289.77Q289.99 289.77 288.68 288.37Q287.36 286.98 287.36 284.38L287.36 284.38L287.36 278.10L284.34 278.10L284.34 275.83L287.36 275.83L287.36 272.06L290.19 272.06L290.19 275.83L294.68 275.83L294.68 278.10L290.19 278.10L290.19 284.41Q290.19 285.88 290.85 286.57Q291.51 287.26 292.64 287.26L292.64 287.26Q293.44 287.26 294.16 287.02Q294.88 286.77 295.66 286.31L295.66 286.31ZM314.35 275.83L314.35 278.10L312.22 278.10L306.52 290.89Q305.31 293.57 303.80 294.91Q302.28 296.25 300.27 296.25L300.27 296.25Q299.14 296.25 298.24 295.89Q297.33 295.53 296.26 294.84L296.26 294.84L297.42 292.68Q298.88 293.74 300.27 293.74L300.27 293.74Q301.51 293.74 302.48 292.95Q303.46 292.16 304.21 290.43L304.21 290.43L304.41 289.97L298.60 278.10L296.35 278.10L296.35 275.83L303.95 275.83L303.95 277.90L301.62 277.90L305.71 287.00L309.71 277.90L307.50 277.90L307.50 275.83L314.35 275.83ZM336.93 285.54L338.14 287.38Q335.37 289.80 331.83 289.80L331.83 289.80Q329.90 289.80 328.17 288.99Q326.45 288.18 325.38 286.63Q324.32 285.07 324.32 282.94L324.32 282.94Q324.32 280.67 325.41 278.97Q326.50 277.27 328.26 276.36Q330.02 275.46 331.95 275.46L331.95 275.46Q333.65 275.46 334.99 276.00Q336.32 276.55 337.09 277.53Q337.85 278.51 337.85 279.78L337.85 279.78Q337.85 281.68 336.22 282.73Q334.60 283.78 332.32 283.78L332.32 283.78Q330.85 283.78 329.59 283.48Q328.32 283.17 327.02 282.60L327.02 282.60L327.02 282.86Q327.02 284.21 327.67 285.25Q328.32 286.28 329.41 286.83Q330.51 287.38 331.80 287.38L331.80 287.38Q334.74 287.38 336.93 285.54L336.93 285.54ZM332.15 277.70Q330.59 277.70 329.25 278.59Q327.92 279.49 327.34 281.01L327.34 281.01Q329.53 281.79 331.72 281.79L331.72 281.79Q333.16 281.79 334.09 281.26Q335.03 280.73 335.03 279.78L335.03 279.78Q335.03 278.85 334.22 278.28Q333.42 277.70 332.15 277.70L332.15 277.70ZM354.35 278.10L349.63 282.42L354.44 287.15L356.25 287.15L356.25 289.42L348.59 289.42L348.59 287.35L350.98 287.35L347.67 283.95L344.19 287.35L346.78 287.35L346.78 289.42L339.69 289.42L339.69 287.15L341.57 287.15L346.38 282.77L341.60 278.10L339.69 278.10L339.69 275.83L347.41 275.83L347.41 277.90L344.99 277.90L348.28 281.24L351.70 277.90L349.23 277.90L349.23 275.83L356.25 275.83L356.25 278.10L354.35 278.10ZM368.78 275.46Q370.48 275.46 371.92 276.35Q373.36 277.24 374.23 278.84Q375.09 280.44 375.09 282.48L375.09 282.48Q375.09 284.58 374.15 286.26Q373.22 287.93 371.60 288.86Q369.99 289.80 368.03 289.80L368.03 289.80Q365.47 289.80 363.31 287.84L363.31 287.84L363.31 293.40L366.45 293.40L366.45 295.67L357.52 295.67L357.52 293.40L360.55 293.40L360.55 278.10L357.52 278.10L357.52 275.83L363.31 275.83L363.31 278.45Q364.43 277.07 365.87 276.26Q367.31 275.46 368.78 275.46L368.78 275.46ZM367.43 287.38Q368.78 287.38 369.86 286.76Q370.94 286.14 371.55 285.02Q372.15 283.89 372.15 282.45L372.15 282.45Q372.15 280.41 370.99 279.13Q369.82 277.85 368.00 277.85L368.00 277.85Q366.77 277.85 365.56 278.59Q364.35 279.34 363.31 280.67L363.31 280.67L363.31 285.71Q365.38 287.38 367.43 287.38L367.43 287.38ZM390.04 285.54L391.25 287.38Q388.48 289.80 384.94 289.80L384.94 289.80Q383.01 289.80 381.28 288.99Q379.55 288.18 378.49 286.63Q377.42 285.07 377.42 282.94L377.42 282.94Q377.42 280.67 378.52 278.97Q379.61 277.27 381.37 276.36Q383.12 275.46 385.05 275.46L385.05 275.46Q386.75 275.46 388.09 276.00Q389.43 276.55 390.20 277.53Q390.96 278.51 390.96 279.78L390.96 279.78Q390.96 281.68 389.33 282.73Q387.70 283.78 385.43 283.78L385.43 283.78Q383.96 283.78 382.69 283.48Q381.43 283.17 380.13 282.60L380.13 282.60L380.13 282.86Q380.13 284.21 380.78 285.25Q381.43 286.28 382.52 286.83Q383.61 287.38 384.91 287.38L384.91 287.38Q387.85 287.38 390.04 285.54L390.04 285.54ZM385.26 277.70Q383.70 277.70 382.36 278.59Q381.02 279.49 380.45 281.01L380.45 281.01Q382.64 281.79 384.82 281.79L384.82 281.79Q386.26 281.79 387.20 281.26Q388.14 280.73 388.14 279.78L388.14 279.78Q388.14 278.85 387.33 278.28Q386.52 277.70 385.26 277.70L385.26 277.70ZM405.53 275.48L406.74 275.48L406.74 281.24L404.24 281.24L404.24 278.28Q403.11 278.28 401.79 279.11Q400.46 279.95 399.05 281.47L399.05 281.47L399.05 287.12L402.13 287.12L402.13 289.39L393.18 289.39L393.18 287.12L396.23 287.12L396.23 278.10L393.18 278.10L393.18 275.83L399.05 275.83L399.05 279.23Q400.58 277.47 402.23 276.48Q403.89 275.48 405.53 275.48L405.53 275.48ZM413.13 272.75Q412.21 272.75 411.58 272.26Q410.95 271.77 410.95 271.02L410.95 271.02Q410.95 270.24 411.58 269.74Q412.21 269.23 413.13 269.23L413.13 269.23Q414.11 269.23 414.75 269.74Q415.38 270.24 415.38 271.02L415.38 271.02Q415.38 271.77 414.75 272.26Q414.11 272.75 413.13 272.75L413.13 272.75ZM414.86 287.12L417.94 287.12L417.94 289.39L408.99 289.39L408.99 287.12L412.04 287.12L412.04 278.10L408.99 278.10L408.99 275.83L414.86 275.83L414.86 287.12ZM432.03 285.54L433.24 287.38Q430.47 289.80 426.93 289.80L426.93 289.80Q425.00 289.80 423.27 288.99Q421.54 288.18 420.48 286.63Q419.41 285.07 419.41 282.94L419.41 282.94Q419.41 280.67 420.51 278.97Q421.60 277.27 423.36 276.36Q425.12 275.46 427.04 275.46L427.04 275.46Q428.74 275.46 430.08 276.00Q431.42 276.55 432.19 277.53Q432.95 278.51 432.95 279.78L432.95 279.78Q432.95 281.68 431.32 282.73Q429.69 283.78 427.42 283.78L427.42 283.78Q425.95 283.78 424.68 283.48Q423.42 283.17 422.12 282.60L422.12 282.60L422.12 282.86Q422.12 284.21 422.77 285.25Q423.42 286.28 424.51 286.83Q425.60 287.38 426.90 287.38L426.90 287.38Q429.84 287.38 432.03 285.54L432.03 285.54ZM427.25 277.70Q425.69 277.70 424.35 278.59Q423.01 279.49 422.44 281.01L422.44 281.01Q424.63 281.79 426.81 281.79L426.81 281.79Q428.25 281.79 429.19 281.26Q430.13 280.73 430.13 279.78L430.13 279.78Q430.13 278.85 429.32 278.28Q428.51 277.70 427.25 277.70L427.25 277.70ZM452.19 287.12L454.89 287.12L454.89 289.39L446.89 289.39L446.89 287.12L449.39 287.12L449.39 281.50Q449.39 279.92 448.60 279.01Q447.81 278.10 446.34 278.10L446.34 278.10Q443.84 278.10 441.04 281.27L441.04 281.27L441.04 287.12L443.55 287.12L443.55 289.39L435.17 289.39L435.17 287.12L438.22 287.12L438.22 278.10L435.17 278.10L435.17 275.83L441.04 275.83L441.04 279.03Q442.65 277.24 444.14 276.36Q445.62 275.48 447.32 275.48L447.32 275.48Q449.65 275.48 450.92 276.98Q452.19 278.48 452.19 281.42L452.19 281.42L452.19 287.12ZM468.57 285.36L469.84 287.21Q467.16 289.80 463.59 289.80L463.59 289.80Q461.69 289.80 460.02 288.90Q458.35 288.01 457.34 286.38Q456.33 284.76 456.33 282.66L456.33 282.66Q456.33 280.67 457.26 279.01Q458.18 277.36 459.73 276.41Q461.29 275.46 463.10 275.46L463.10 275.46Q465.98 275.46 467.60 277.50L467.60 277.50L467.60 275.83L469.64 275.83L469.64 280.58L468.43 280.67Q467.02 277.79 463.94 277.79L463.94 277.79Q462.61 277.79 461.55 278.41Q460.48 279.03 459.88 280.12Q459.27 281.22 459.27 282.63L459.27 282.63Q459.27 284.01 459.92 285.10Q460.57 286.20 461.62 286.79Q462.67 287.38 463.88 287.38L463.88 287.38Q465.29 287.41 466.37 286.89Q467.45 286.37 468.57 285.36L468.57 285.36ZM484.50 285.54L485.71 287.38Q482.95 289.80 479.40 289.80L479.40 289.80Q477.47 289.80 475.75 288.99Q474.02 288.18 472.95 286.63Q471.89 285.07 471.89 282.94L471.89 282.94Q471.89 280.67 472.98 278.97Q474.08 277.27 475.83 276.36Q477.59 275.46 479.52 275.46L479.52 275.46Q481.22 275.46 482.56 276.00Q483.90 276.55 484.66 277.53Q485.42 278.51 485.42 279.78L485.42 279.78Q485.42 281.68 483.80 282.73Q482.17 283.78 479.89 283.78L479.89 283.78Q478.42 283.78 477.16 283.48Q475.89 283.17 474.59 282.60L474.59 282.60L474.59 282.86Q474.59 284.21 475.24 285.25Q475.89 286.28 476.98 286.83Q478.08 287.38 479.37 287.38L479.37 287.38Q482.31 287.38 484.50 285.54L484.50 285.54ZM479.72 277.70Q478.16 277.70 476.83 278.59Q475.49 279.49 474.91 281.01L474.91 281.01Q477.10 281.79 479.29 281.79L479.29 281.79Q480.73 281.79 481.66 281.26Q482.60 280.73 482.60 279.78L482.60 279.78Q482.60 278.85 481.79 278.28Q480.99 277.70 479.72 277.70L479.72 277.70ZM511.63 287.00L512.21 289.05Q511.26 289.62 509.99 289.62L509.99 289.62Q508.92 289.62 508.19 289.01Q507.45 288.39 507.17 287.23L507.17 287.23Q504.29 289.80 501.46 289.80L501.46 289.80Q499.48 289.80 498.09 288.67Q496.71 287.55 496.71 285.54L496.71 285.54Q496.71 284.15 497.49 283.13Q498.27 282.11 499.58 281.58Q500.89 281.04 502.41 281.04L502.41 281.04Q503.71 281.04 504.80 281.29Q505.90 281.53 507.05 281.99L507.05 281.99L507.05 280.73Q507.05 279.26 506.07 278.57Q505.09 277.87 503.51 277.87L503.51 277.87Q501.26 277.87 498.09 279.11L498.09 279.11L497.52 276.92Q500.92 275.48 503.85 275.48L503.85 275.48Q506.65 275.48 508.19 276.85Q509.73 278.22 509.73 280.84L509.73 280.84L509.73 285.82Q509.73 287.23 510.74 287.23L510.74 287.23Q511.17 287.23 511.63 287.00L511.63 287.00ZM499.51 285.39Q499.51 286.37 500.28 286.90Q501.06 287.44 502.18 287.44L502.18 287.44Q503.16 287.44 504.43 286.92Q505.70 286.40 507.05 285.39L507.05 285.39L507.05 283.86Q505.09 283.17 502.90 283.12L502.90 283.12Q501.49 283.12 500.50 283.71Q499.51 284.30 499.51 285.39L499.51 285.39ZM524.19 275.46Q525.89 275.46 527.33 276.35Q528.77 277.24 529.63 278.84Q530.49 280.44 530.49 282.48L530.49 282.48Q530.49 284.58 529.56 286.26Q528.62 287.93 527.01 288.86Q525.40 289.80 523.44 289.80L523.44 289.80Q520.88 289.80 518.72 287.84L518.72 287.84L518.72 293.40L521.85 293.40L521.85 295.67L512.93 295.67L512.93 293.40L515.95 293.40L515.95 278.10L512.93 278.10L512.93 275.83L518.72 275.83L518.72 278.45Q519.84 277.07 521.28 276.26Q522.72 275.46 524.19 275.46L524.19 275.46ZM522.83 287.38Q524.19 287.38 525.27 286.76Q526.35 286.14 526.95 285.02Q527.56 283.89 527.56 282.45L527.56 282.45Q527.56 280.41 526.39 279.13Q525.22 277.85 523.41 277.85L523.41 277.85Q522.17 277.85 520.96 278.59Q519.75 279.34 518.72 280.67L518.72 280.67L518.72 285.71Q520.79 287.38 522.83 287.38L522.83 287.38ZM543.22 275.46Q544.92 275.46 546.36 276.35Q547.80 277.24 548.67 278.84Q549.53 280.44 549.53 282.48L549.53 282.48Q549.53 284.58 548.60 286.26Q547.66 287.93 546.05 288.86Q544.43 289.80 542.48 289.80L542.48 289.80Q539.91 289.80 537.75 287.84L537.75 287.84L537.75 293.40L540.89 293.40L540.89 295.67L531.96 295.67L531.96 293.40L534.99 293.40L534.99 278.10L531.96 278.10L531.96 275.83L537.75 275.83L537.75 278.45Q538.88 277.07 540.32 276.26Q541.76 275.46 543.22 275.46L543.22 275.46ZM541.87 287.38Q543.22 287.38 544.30 286.76Q545.38 286.14 545.99 285.02Q546.59 283.89 546.59 282.45L546.59 282.45Q546.59 280.41 545.43 279.13Q544.26 277.85 542.45 277.85L542.45 277.85Q541.21 277.85 540.00 278.59Q538.79 279.34 537.75 280.67L537.75 280.67L537.75 285.71Q539.83 287.38 541.87 287.38L541.87 287.38Z" data-element="slogan" data-text-path="" data-text="Joyful property experience app" data-font-family="BioRhyme" fill="#ffbad4" fill-opacity="1"></path></g></g></svg>